<svg xmlns="http://www.w3.org/2000/svg" xmlns:xlink="http://www.w3.org/1999/xlink" width="195.472" height="68.247" viewBox="0 0 195.472 68.247">
  <defs>
    <clipPath id="clip-path">
      <rect id="Rectangle_24" data-name="Rectangle 24" width="195.472" height="68.247" fill="none"/>
    </clipPath>
  </defs>
  <g id="Group_12" data-name="Group 12" transform="translate(0 0)">
    <g id="Group_11" data-name="Group 11" transform="translate(0 0)" clip-path="url(#clip-path)">
      <path id="Path_20" data-name="Path 20" d="M121.23,40.913c0-4.6.074-10.106.192-13.149h-.213c-1.2,5.607-3.974,15.59-6.33,23.251h-4.767c-1.744-6.457-4.568-17.823-5.682-23.326h-.218c.233,3.16.346,9.019.346,13.684v9.642H99.493V23.949h8.249c1.941,6.322,4.357,15.756,5.111,19.863h.044c.583-3.51,3.68-13.466,5.711-19.863h7.935V51.016H121.23Z" transform="translate(-19.104 -4.598)" fill="#fff"/>
      <path id="Path_21" data-name="Path 21" d="M140.353,43.483c0,2.513.955,5.165,3.992,5.165a3.318,3.318,0,0,0,3.489-2.416H153.1c-.991,3.392-3.381,6.623-8.912,6.623-6.535,0-9.247-4.454-9.247-10.563,0-5.063,2.54-10.64,9.475-10.64,6.859,0,8.936,4.9,8.936,10.164,0,.279-.036,1.353-.07,1.666Zm7.763-3.5c-.084-2.3-1.013-4.293-3.781-4.293-3.052,0-3.806,2.467-3.9,4.293Z" transform="translate(-25.91 -6.078)" fill="#fff"/>
      <path id="Path_22" data-name="Path 22" d="M178.581,21.893V44.922c0,2.384.035,4.5.08,5.7h-5.23a23.521,23.521,0,0,1-.183-2.414c-.967,1.782-2.492,2.8-5.741,2.8-5.209,0-7.906-4.254-7.906-10.574,0-6.156,3.291-10.657,8.8-10.657,3.044,0,4.356,1.045,4.809,1.862V21.893ZM165.088,40.249c0,3.831,1.29,6.411,4.191,6.411,3.5,0,4.182-2.376,4.182-6.369,0-4.377-.877-6.126-4.014-6.126-2.645,0-4.359,2.012-4.359,6.083" transform="translate(-30.646 -4.204)" fill="#fff"/>
      <path id="Path_23" data-name="Path 23" d="M186.046,21.894h5.369v4.94h-5.369Zm0,8.281h5.369V50.622h-5.369Z" transform="translate(-35.724 -4.204)" fill="#fff"/>
      <path id="Path_24" data-name="Path 24" d="M213.655,21.893V44.922c0,2.384.035,4.5.08,5.7h-5.23a23.513,23.513,0,0,1-.183-2.414c-.967,1.782-2.492,2.8-5.741,2.8-5.209,0-7.906-4.254-7.906-10.574,0-6.156,3.291-10.657,8.8-10.657,3.044,0,4.356,1.045,4.809,1.862V21.893ZM200.162,40.249c0,3.831,1.29,6.411,4.191,6.411,3.5,0,4.182-2.376,4.182-6.369,0-4.377-.877-6.126-4.014-6.126-2.645,0-4.359,2.012-4.359,6.083" transform="translate(-37.381 -4.204)" fill="#fff"/>
      <path id="Path_25" data-name="Path 25" d="M237.465,47.2a49.6,49.6,0,0,0,.281,5.3h-4.7a17.147,17.147,0,0,1-.311-2.473c-.85,1.661-2.77,2.828-5.725,2.828-5.058,0-6.848-3.154-6.848-6.242,0-3.68,2.549-6.714,9.639-6.714h2.4V38.407c0-1.671-.518-2.969-2.918-2.969-2.375,0-2.948,1.214-3.139,2.718h-5.195c.217-3.229,2.152-6.5,8.417-6.5,4.832,0,8.1,1.664,8.1,6.725Zm-5.086-3.872h-2.486c-3.667,0-4.351,1.492-4.351,2.859,0,1.392.831,2.593,2.876,2.593,3.207,0,3.962-2.133,3.962-5.022Z" transform="translate(-42.274 -6.078)" fill="#fff"/>
      <path id="Path_26" data-name="Path 26" d="M34.124,68.247A34.124,34.124,0,1,1,68.247,34.124,34.162,34.162,0,0,1,34.124,68.247m0-63.239A29.115,29.115,0,1,0,63.238,34.124,29.147,29.147,0,0,0,34.124,5.009" transform="translate(0 0)" fill="#fff"/>
      <path id="Path_27" data-name="Path 27" d="M27.162,24.07,19.8,51.591H24.8l4.864-18.176c-.309-1.133-2.5-9.344-2.5-9.344" transform="translate(-3.801 -4.622)" fill="#fff" fill-rule="evenodd"/>
      <path id="Path_28" data-name="Path 28" d="M57.912,51.195,50.1,22.007H45.09L39.8,41.744c-.166-.3-5.048-18.745-5.33-19.737H29.464l7.813,29.188h5.008L47.56,31.23,52.9,51.195Z" transform="translate(-5.658 -4.226)" fill="#fff" fill-rule="evenodd"/>
    </g>
  </g>
</svg>
