<svg xmlns="http://www.w3.org/2000/svg" width="568.175" height="491.478" viewBox="0 0 568.175 491.478">
  <g id="Component_1_3" data-name="Component 1 – 3" opacity="0.038">
    <path id="Path_30" data-name="Path 30" d="M428.036,477.918,449.478,465.4l11.539,6.662,9.724,5.614-22.082,12.9Zm-426.13,0L23.346,465.4l11.54,6.663,9.725,5.614-22.084,12.9Zm142.043,0L165.39,465.4l11.54,6.663,9.724,5.614-22.084,12.9Zm142.044,0,21.44-12.522L328.7,477.673l-22.084,12.9Zm96.446-.775,8.806-5.084,11.571-6.681,20.353,12.487L402.9,489.7Zm142.045,0,8.8-5.084,11.572-6.681,20.351,12.487L544.949,489.7Zm-426.131,0,8.8-5.084,11.573-6.682,20.351,12.488L118.817,489.7Zm142.043,0,8.806-5.084,11.571-6.682,20.353,12.488L260.86,489.7ZM72.272,466.626l19.982-10.9v22.053L72.272,489.315Zm142.043,0,19.984-10.9v22.053l-19.984,11.537Zm142.043,0,19.984-10.9v22.052l-19.984,11.537Zm142.045,0,19.983-10.9v22.052L498.4,489.314ZM48.7,477.149h.13V455.2l20.94,11.422v22.689Zm142.044,0h.13V455.2l20.941,11.422v22.689Zm142.043,0h.132V455.2l20.939,11.421v22.689Zm142.045,0h.13V455.2L495.9,466.625v22.689Zm-69.552-13.194,20.85-12.037,20.854,12.04-21.366,12.476Zm-284.088,0,20.85-12.038L162.9,463.956l-21.366,12.478Zm142.043,0,20.851-12.038,8.7,5.023,12.154,7.016-21.365,12.478ZM94.754,454.362l21.055-11.485v21.3l-9.9,5.717-11.153,6.439Zm142.044,0,21.054-11.485v21.3l-9.9,5.717L236.8,476.335Zm142.044,0L399.9,442.877v21.3l-9.9,5.718-11.152,6.438Zm142.044,0,21.055-11.485v21.3l-9.9,5.718-11.152,6.438Zm-211.831,9.085v-21.26l21.364,11.653v21.942ZM36.136,469.9l-11.169-6.45v-21.26L46.332,453.84v21.942Zm142.043,0-11.168-6.45v-21.26l21.364,11.654v21.942Zm284.088,0L451.1,463.447V442.186l21.363,11.654v21.942ZM1.249,449.753v-20.5l21.218,11.573V462Zm117.059-8.238,22.486-12.265v20.5l-22.486,12.982Zm24.985,8.238v-20.5l21.219,11.573V462Zm117.059-8.238,22.485-12.265v20.5l-22.485,12.982Zm32.987,12.858-8-4.62v-20.5l21.217,11.573V462ZM402.4,441.513l22.483-12.263v20.5L402.4,462.734Zm24.983,8.24v-20.5L448.6,440.823V462Zm117.059-8.24,22.485-12.263v20.5L544.44,462.734ZM72.272,438.728l19.982-10.9v25.05l-19.982,10.9Zm142.043,0,19.984-10.9v25.05l-19.984,10.9Zm142.043,0,19.984-10.9v25.05l-19.984,10.9Zm142.045,0,19.983-10.9v25.05l-19.983,10.9ZM48.831,452.356v-25.05l20.94,11.422v25.05Zm142.044,0v-25.05l20.941,11.422v25.05Zm142.045,0v-25.05l20.939,11.422v25.05Zm142.043,0V427.306L495.9,438.728v25.05ZM94.754,426.465l21.055-11.485v25.05L94.754,451.516Zm142.044,0,21.054-11.485v25.05L236.8,451.516Zm142.044,0L399.9,414.979v25.052l-21.055,11.485Zm142.044,0,21.055-11.484v25.052l-21.055,11.485ZM24.967,439.34V414.289l21.365,11.653v25.051Zm142.044,0V414.289l21.364,11.653v25.051Zm142.044,0V414.289l21.364,11.653v25.051Zm142.044,0V414.289l21.363,11.653v25.051ZM1.249,426.4V401.351l21.218,11.574v25.051Zm117.059-12.786,22.486-12.265V426.4l-22.486,12.266ZM143.293,426.4V401.351l21.219,11.574v25.051Zm117.059-12.786,22.485-12.265V426.4l-22.485,12.266ZM285.338,426.4V401.351l21.217,11.574v25.05ZM402.4,413.615l22.483-12.264V426.4L402.4,438.666ZM427.381,426.4V401.351L448.6,412.925v25.051ZM544.44,413.615l22.485-12.264V426.4L544.44,438.666ZM72.272,410.191l19.982-11.537V424.98l-19.982,10.9Zm142.043,0L234.3,398.654V424.98l-19.984,10.9Zm142.043,0,19.984-11.537v26.327l-19.984,10.9Zm142.045,0,19.983-11.537v26.327l-19.983,10.9ZM48.831,424.458V398.1l20.94,12.089v25.69Zm142.044,0V398.1l20.941,12.089v25.69Zm142.045,0V398.1l20.939,12.089v25.69Zm142.043,0V398.1L495.9,410.191v25.69ZM94.754,397.537l.309-.5,20.746-11.977v27.078L94.754,423.617Zm142.044,0,.309-.5,20.745-11.977v27.078L236.8,423.617Zm142.044,0,.31-.5L399.9,385.054v27.079l-21.055,11.484Zm142.044,0,.309-.5,20.746-11.978v27.079l-21.055,11.484ZM309.055,411.441V384.324l21.364,12.334V423.1Zm142.044,0V384.324l21.363,12.334V423.1Zm-426.132,0V384.324l21.365,12.334V423.1Zm142.044,0V384.324l21.364,12.334V423.1ZM50,395.888,70.8,383.737l20.5,12.579L71.021,408.027Zm142.043,0,20.807-12.151,20.5,12.579-20.282,11.711Zm142.044,0,20.807-12.151,20.5,12.579-20.284,11.711Zm142.045,0,20.806-12.151,20.5,12.579-20.283,11.711ZM402.4,383.611l22.483-12.98v27.874L402.4,410.768Zm24.983,14.894V370.631L448.6,382.88v27.2ZM544.44,383.611l22.485-12.98v27.874L544.44,410.768ZM1.249,398.5V370.63l21.218,12.251v27.2Zm117.059-14.891,22.486-12.983V398.5l-22.486,12.265ZM143.293,398.5V370.63l21.219,12.251v27.2Zm117.059-14.891,22.485-12.983V398.5l-22.485,12.265ZM285.338,398.5V370.63l21.217,12.25v27.2Zm-212.085-16.2,20.263-11.835,20.629,12.658L93.768,394.894Zm142.043,0,20.263-11.835L256.19,383.13l-20.379,11.764Zm142.044,0,20.265-11.835,20.629,12.656-20.378,11.766Zm142.044,0,20.265-11.835,20.629,12.656L519.9,394.894Zm-473.146-.136L47.763,369.6l20.621,12.654L47.5,394.449Zm142.044,0L189.807,369.6l20.621,12.654-20.882,12.2Zm142.043,0L331.85,369.6l20.622,12.654-20.882,12.2Zm142.044,0L473.894,369.6l20.622,12.654-20.882,12.2Zm-402.156-14,20.264-11.834L91.1,368.988,70.834,380.823Zm142.043,0,20.264-11.834,20.623,12.653-20.264,11.835Zm142.044,0,20.265-11.834,20.621,12.653-20.264,11.835Zm142.044,0,20.265-11.834,20.622,12.653-20.265,11.835Zm-96.289.872L402.214,356.1l21.418,12.365L400.7,381.707Zm142.044,0L544.258,356.1l21.417,12.365-22.934,13.242Zm-426.132,0,22.16-12.941,21.417,12.365-22.935,13.242Zm142.043,0L260.17,356.1l21.418,12.365-22.935,13.242Zm48.577-.576,4.017-2.32,18.373-10.606-.013.021,20.468,12.558-21.6,12.615Zm142.044,0,22.389-12.926-.012.021,20.468,12.557-21.6,12.615Zm-426.132,0L24.89,355.538l-.012.022,20.467,12.557-21.6,12.615Zm142.043,0,22.392-12.927-.013.022,20.468,12.557-21.6,12.615ZM72.927,354.9l21.441-12.521,11.539,6.661,9.726,5.615-22.085,12.9Zm142.044,0,21.442-12.521,11.538,6.661,9.726,5.615-22.085,12.9Zm142.044,0,21.44-12.521,11.539,6.661,9.727,5.616-22.084,12.9Zm142.044,0,21.44-12.521,11.539,6.661,9.727,5.616-22.084,12.9Zm-471.73-.776,8.807-5.084,11.571-6.68L68.06,354.852,47.795,366.686Zm142.044,0,8.806-5.084,11.572-6.68L210.1,354.852l-20.264,11.834Zm142.044,0L331.8,342.365l20.35,12.487-20.264,11.834Zm142.044,0,8.806-5.084,11.571-6.68,20.353,12.487-20.265,11.834ZM1.249,343.613l19.984-10.9v22.051L1.249,366.3Zm284.089,0,19.981-10.9v22.052l-15.12,8.729-4.861,2.807Zm142.043,0,19.983-10.9v22.052L427.381,366.3Zm-284.088,0,19.984-10.9v22.052L143.293,366.3Zm-23.571,10.524h.131V332.19l20.941,11.422V366.3Zm142.044,0h.131V332.19l20.94,11.422V366.3Zm142.044,0h.13V332.19l20.941,11.422V366.3Zm142.044,0h.131V332.19l20.94,11.422V366.3ZM50.17,340.943,71.021,328.9l20.854,12.04L70.509,353.422Zm142.044,0L213.066,328.9l20.854,12.04-21.367,12.478Zm142.044,0,20.85-12.039,20.854,12.04L354.6,353.422Zm142.044,0L497.153,328.9l20.853,12.04L496.64,353.421ZM23.732,331.35l21.056-11.486v21.3l-9.9,5.717L23.732,353.32Zm142.044,0,21.055-11.485v21.3l-9.9,5.716-11.154,6.439Zm142.044,0,21.054-11.485v21.3L307.82,353.32Zm142.044,0,21.054-11.485v21.3l-9.9,5.716-11.153,6.439ZM107.157,346.881l-11.169-6.449V319.173l21.365,11.653v21.942Zm142.045,0-11.169-6.449V319.173L259.4,330.826v21.942Zm142.043,0-11.169-6.449V319.173l21.363,11.653v21.941Zm142.044,0-11.169-6.449V319.173l21.364,11.653v21.941Zm-486-28.38,22.484-12.266v20.5L47.287,339.721Zm24.985,8.238v-20.5L93.49,317.809V338.99ZM189.33,318.5l22.486-12.266v20.5L189.33,339.721Zm24.985,8.238v-20.5l21.218,11.574V338.99ZM331.374,318.5l22.485-12.265v20.5L331.374,339.72Zm24.984,8.239v-20.5l21.218,11.573v21.181ZM473.419,318.5,495.9,306.235v20.5L473.419,339.72Zm24.984,8.239v-20.5l21.216,11.573v21.181ZM1.249,315.715l19.984-10.9v25.051l-19.984,10.9Zm284.089,0,19.981-10.9v25.051l-19.981,10.9Zm142.043,0,19.983-10.9v25.052l-19.983,10.9Zm-284.088,0,19.984-10.9v25.052l-19.984,10.9Zm-23.44,13.628v-25.05l20.941,11.422v25.051Zm142.044,0v-25.05l20.94,11.422v25.051Zm142.043,0V304.292l20.941,11.422v25.051Zm142.045,0V304.292l20.94,11.422v25.051ZM23.732,303.451l21.056-11.485v25.05L23.732,328.5Zm142.044,0,21.055-11.485v25.05L165.776,328.5Zm142.044,0,21.054-11.484v25.05L307.82,328.5Zm142.044,0,21.054-11.484v25.051L449.864,328.5ZM95.988,316.325V291.274l21.365,11.654v25.051Zm142.045,0V291.274L259.4,302.928v25.051Zm142.043,0V291.274l21.363,11.654v25.051Zm142.044,0V291.274l21.364,11.654v25.051ZM47.287,290.6l22.484-12.264v25.049L47.287,315.654Zm24.985,12.785V278.338L93.49,289.911v25.05ZM189.33,290.6l22.486-12.264v25.049L189.33,315.654Zm24.985,12.785V278.338l21.218,11.573v25.05ZM331.374,290.6l22.485-12.263v25.05l-22.485,12.266Zm24.984,12.787v-25.05l21.218,11.572v25.051ZM473.419,290.6,495.9,278.338v25.05l-22.483,12.266ZM498.4,303.388v-25.05l21.216,11.572v25.051Zm-213.065-16.21,19.981-11.537v26.325l-19.981,10.9Zm142.043,0,19.983-11.537v26.326l-19.983,10.9Zm-426.132,0L21.233,275.64v26.326l-19.984,10.9Zm142.044,0,19.984-11.538v26.326l-19.984,10.9ZM403.94,301.445V275.089l20.941,12.089v25.689Zm142.045,0V275.089l20.94,12.089v25.689Zm-426.132,0V275.088l20.941,12.09v25.689Zm142.044,0V275.088l20.94,12.09v25.689ZM23.732,274.523l.308-.5,20.748-11.978v27.077L23.732,300.6Zm142.044,0,.309-.5,20.746-11.978v27.077L165.776,300.6Zm142.044,0,.31-.5,20.744-11.978v27.078L307.82,300.6Zm142.044,0,.307-.5,20.747-11.979v27.078L449.864,300.6ZM95.988,288.428V261.311l21.365,12.334v26.436Zm142.045,0V261.311L259.4,273.645v26.436Zm142.043,0V261.311l21.363,12.333v26.437Zm142.044,0V261.311l21.364,12.333v26.437Zm-401.1-15.554,20.807-12.15,20.5,12.578-20.284,11.712Zm284.088,0,20.806-12.15,20.5,12.578-20.284,11.712Zm-142.044,0,20.808-12.151,20.5,12.579-20.285,11.712ZM47.287,260.6l22.484-12.982V275.49L47.287,287.754ZM72.272,275.49V247.617l21.218,12.25v27.2ZM189.33,260.6l22.486-12.982V275.49L189.33,287.754Zm24.985,14.891V247.617l21.218,12.25v27.2ZM331.374,260.6l22.485-12.982v27.874l-22.485,12.263Zm24.984,14.892V247.617l21.218,12.25v27.2ZM473.419,260.6,495.9,247.617v27.874l-22.483,12.263ZM498.4,275.491V247.617l21.216,12.25v27.2ZM2.229,259.293,22.5,247.458l20.629,12.657L22.746,271.881Zm142.044,0,20.267-11.835,20.629,12.657L164.79,271.881Zm142.045,0,20.265-11.835,20.629,12.657-20.378,11.766Zm142.043,0,20.266-11.835,20.629,12.657-20.379,11.767Zm-331.1-.136,21.526-12.57,20.622,12.653-20.882,12.2Zm142.044,0,21.527-12.57,20.621,12.652-20.882,12.2Zm142.044,0,21.526-12.57,20.623,12.652-20.884,12.2Zm142.044,0,21.526-12.57,20.622,12.652-20.883,12.2Zm-402.157-14L141.5,233.322l20.621,12.653L141.856,257.81Zm142.044,0,20.266-11.835,20.623,12.653L283.9,257.81Zm142.043,0,20.267-11.835,20.622,12.653L425.943,257.81Zm-380.375.871L47.1,233.087l21.418,12.365L45.587,258.693Zm142.043,0,22.159-12.941,21.419,12.365-22.935,13.242Zm142.045,0,22.159-12.941,21.417,12.366-22.934,13.24Zm142.042,0,22.161-12.941,21.416,12.366-22.933,13.24Zm-377.553-.576,22.39-12.927-.013.021L116.366,245.1l-21.6,12.615Zm142.043,0,22.39-12.927-.011.021L258.41,245.1l-21.6,12.615Zm142.043,0L380,232.525l-.013.021L400.455,245.1l-21.6,12.615Zm142.045,0,22.39-12.928-.013.021L542.5,245.1l-21.6,12.615ZM1.9,231.891,23.346,219.37l11.54,6.662,9.726,5.616-22.085,12.9Zm142.044,0,21.441-12.521,11.541,6.662,9.724,5.616-22.084,12.9Zm142.045,0,21.44-12.521L328.7,231.648l-22.085,12.9Zm142.042,0,21.442-12.521,11.54,6.662,9.725,5.616-22.084,12.9Zm-45.6-.774,8.807-5.085,11.572-6.68,20.352,12.485L402.9,243.672Zm142.045,0,8.806-5.085,11.572-6.68,20.352,12.485-20.267,11.835Zm-426.132,0,8.806-5.085,11.573-6.681,20.352,12.486-20.266,11.835Zm142.044,0,8.807-5.085,11.572-6.681,20.352,12.486-20.267,11.835ZM72.272,220.6l19.982-10.9v22.053L72.272,243.288Zm142.043,0L234.3,209.7v22.053l-19.984,11.537Zm142.043,0,19.984-10.9V231.75l-19.984,11.537Zm142.045,0,19.983-10.9V231.75L498.4,243.287ZM48.7,231.122h.131V209.176L69.771,220.6v22.69Zm142.043,0h.132V209.176L211.816,220.6v22.69Zm142.044,0h.133V209.176L353.859,220.6v22.69Zm142.045,0h.131V209.176L495.9,220.6v22.69ZM121.193,217.93l20.85-12.039,20.854,12.04L141.53,230.408Zm142.043,0,20.851-12.039,6.112,3.528,14.741,8.512-21.366,12.477Zm142.045,0,20.85-12.039,20.853,12.04-21.365,12.477ZM94.754,208.335l21.055-11.484v21.3l-9.9,5.717-11.153,6.439Zm142.044,0,21.054-11.484v21.3l-9.9,5.717L236.8,230.307Zm142.044,0L399.9,196.851v21.3l-9.9,5.717-11.152,6.439Zm142.044,0,21.055-11.484v21.3l-9.9,5.717-11.152,6.439ZM36.136,223.868l-11.169-6.449v-21.26l21.365,11.655v21.941Zm142.043,0-11.168-6.449v-21.26l21.364,11.655v21.941Zm130.876-6.448V196.159l21.364,11.653v21.943Zm153.212,6.448L451.1,217.419v-21.26l21.363,11.653v21.943ZM1.249,203.727V183.222L22.467,194.8v21.181Zm117.059-8.24,22.486-12.265v20.505l-22.486,12.981Zm24.985,8.24V183.222L164.512,194.8v21.181Zm117.059-8.24,22.485-12.265v20.505l-22.485,12.981Zm30.252,11.28-5.266-3.04V183.222L306.555,194.8v21.181ZM402.4,195.486l22.483-12.264v20.505L402.4,216.708Zm24.983,8.241V183.222L448.6,194.8v21.181Zm117.059-8.241,22.485-12.264v20.505L544.44,216.708ZM72.272,192.7l19.982-10.9v25.051l-19.982,10.9Zm142.043,0L234.3,181.8v25.051l-19.984,10.9Zm142.043,0,19.984-10.9v25.052l-19.984,10.9Zm142.045,0,19.983-10.9v25.052l-19.983,10.9ZM48.831,206.329V181.278L69.771,192.7v25.051Zm142.044,0V181.278L211.816,192.7v25.051Zm142.045,0V181.278L353.859,192.7v25.051Zm142.043,0V181.278L495.9,192.7v25.051ZM94.754,180.438l21.055-11.485V194L94.754,205.488Zm142.044,0,21.054-11.485V194L236.8,205.488Zm142.044,0L399.9,168.952V194l-21.055,11.484Zm142.044,0,21.055-11.485V194l-21.055,11.484ZM24.967,193.312V168.261l21.365,11.654v25.05Zm142.044,0V168.261l21.364,11.654v25.05Zm142.044,0V168.261l21.364,11.654v25.05Zm142.044,0V168.261l21.363,11.653v25.051ZM1.249,180.375V155.324L22.467,166.9v25.051ZM118.308,167.59l22.486-12.266v25.051L118.308,192.64Zm24.985,12.785V155.324L164.512,166.9v25.051ZM260.352,167.59l22.485-12.266v25.051L260.352,192.64Zm24.986,12.785V155.324L306.555,166.9v25.052ZM402.4,167.589l22.483-12.265v25.051L402.4,192.64Zm24.983,12.786V155.324L448.6,166.9v25.052ZM544.44,167.589l22.485-12.265v25.051L544.44,192.64ZM72.272,164.165l19.982-11.538v26.326l-19.982,10.9Zm142.043,0L234.3,152.627v26.326l-19.984,10.9Zm142.043,0,19.984-11.537v26.327l-19.984,10.9Zm142.045,0,19.983-11.537v26.327l-19.983,10.9ZM332.92,178.431V152.075l20.939,12.089v25.689Zm142.043,0V152.075L495.9,164.164v25.689Zm-426.132,0V152.074l20.94,12.091v25.688Zm142.044,0V152.074l20.941,12.091v25.688ZM94.754,151.51l.31-.5,20.745-11.978V166.1L94.754,177.59Zm142.044,0,.309-.5,20.745-11.978V166.1L236.8,177.59Zm142.044,0,.31-.5L399.9,139.028V166.1L378.842,177.59Zm142.044,0,.309-.5,20.746-11.977V166.1L520.886,177.59Zm-495.919,13.9V138.3l21.365,12.334v26.437Zm142.044,0V138.3l21.364,12.334v26.437Zm142.044,0V138.3l21.364,12.333v26.437Zm142.044,0V138.3l21.363,12.333v26.438ZM50,149.86,70.8,137.71l20.5,12.579L71.021,162Zm142.043,0,20.807-12.15,20.5,12.579L213.066,162Zm142.044,0,20.807-12.15,20.5,12.579L355.108,162Zm142.045,0,20.806-12.15,20.5,12.579L497.153,162ZM1.249,152.476V124.6l21.218,12.25v27.2Zm117.059-14.891L140.794,124.6v27.873l-22.486,12.266Zm24.985,14.891V124.6l21.219,12.25v27.2Zm117.059-14.891L282.837,124.6v27.873l-22.485,12.266Zm24.986,14.891V124.6l21.217,12.25v27.2ZM402.4,137.584,424.881,124.6v27.874L402.4,164.742Zm24.983,14.893V124.6l21.217,12.25v27.2ZM544.44,137.584,566.925,124.6v27.874L544.44,164.742Zm-471.188-1.3,20.265-11.835,20.63,12.658-20.38,11.766Zm142.043,0,20.266-11.835,20.63,12.658-20.38,11.766Zm142.044,0,20.267-11.835L398.234,137.1l-20.379,11.765Zm142.044,0,20.267-11.835L540.279,137.1,519.9,148.867Zm-473.146-.136,21.526-12.57,20.621,12.654L47.5,148.421Zm142.044,0,21.526-12.57,20.621,12.654-20.882,12.194Zm142.044,0,21.525-12.571,20.622,12.654-20.883,12.194Zm142.044,0,21.525-12.57,20.622,12.654-20.883,12.194Zm-402.157-14,20.266-11.836L91.1,122.961,70.833,134.8Zm142.043,0,20.267-11.836,20.622,12.653L212.878,134.8Zm142.044,0,20.267-11.836,20.622,12.653L354.921,134.8Zm142.044,0,20.266-11.836,20.623,12.653L496.965,134.8Zm-380.377.871,22.161-12.942,21.417,12.365L116.609,135.68Zm142.044,0,22.16-12.942,21.418,12.365L258.653,135.68Zm142.044,0,22.16-12.942,21.418,12.365L400.7,135.68Zm142.044,0,22.16-12.942,21.417,12.365L542.741,135.68ZM2.5,122.438,24.89,109.511l-.012.02L45.345,122.09,23.743,134.7Zm142.043,0,22.391-12.927-.012.02,20.468,12.559-21.6,12.614Zm142.045,0,4.017-2.319,18.373-10.608-.013.02,20.468,12.559-21.6,12.615Zm142.044,0,22.388-12.927-.011.02,20.468,12.559-21.6,12.614Zm-355.7-13.56L94.368,96.356l11.539,6.663,9.726,5.615-22.085,12.9Zm142.043,0,21.442-12.522,11.539,6.663,9.726,5.615-22.085,12.9Zm142.044,0,21.44-12.522,11.54,6.663,9.727,5.615-22.084,12.9Zm142.044,0L520.5,96.356l11.54,6.663,9.727,5.615-22.084,12.9ZM27.329,108.1l8.807-5.085,11.572-6.682L68.06,108.824,47.793,120.659Zm142.044,0,8.806-5.085,11.573-6.682L210.1,108.824l-20.267,11.835Zm142.043,0L331.8,96.337l20.352,12.487L331.881,120.66Zm142.044,0,8.807-5.085,11.573-6.682,20.352,12.487-20.267,11.835ZM1.249,97.586l19.984-10.9v22.051L1.249,120.274Zm284.089,0,19.981-10.9v22.052l-15.12,8.729-4.861,2.808Zm142.043,0,19.983-10.9v22.052l-19.983,11.536Zm-284.088,0,19.984-10.9v22.051l-19.984,11.538Zm-23.571,10.524h.131V86.162l20.941,11.422v22.69Zm142.044,0h.131V86.162l20.94,11.422v22.69Zm142.044,0h.13V86.162l20.941,11.422v22.689Zm142.044,0h.131V86.162l20.94,11.422v22.689Zm-211.6-13.192,20.85-12.039,20.853,12.04L354.6,107.394Zm142.044,0,20.851-12.039,20.853,12.04L496.64,107.394Zm-426.132,0L71.021,82.877l20.853,12.04L70.508,107.394Zm142.044,0,20.852-12.039,20.852,12.04-21.365,12.477ZM23.732,85.322,44.788,73.837v21.3l-9.9,5.717-11.154,6.44Zm142.044,0,21.055-11.484v21.3l-9.9,5.717-11.154,6.44Zm142.044,0,21.054-11.484v21.3L307.82,107.294Zm142.044,0,21.054-11.484v21.3l-9.9,5.717-11.153,6.439ZM107.157,100.854,95.988,94.407V73.145L117.353,84.8v21.941Zm142.045,0-11.169-6.447V73.145L259.4,84.8v21.941Zm142.043,0-11.169-6.447V73.145L401.439,84.8V106.74Zm142.044,0L522.12,94.407V73.145L543.484,84.8V106.74Zm-486-28.38L69.771,60.209v20.5L47.287,93.695Zm24.985,8.239v-20.5L93.49,71.782V92.963ZM189.33,72.474l22.486-12.265v20.5L189.33,93.7Zm24.985,8.239v-20.5l21.218,11.573V92.963Zm117.059-8.24,22.485-12.264v20.5L331.374,93.695Zm24.984,8.24v-20.5l21.218,11.572V92.963Zm117.061-8.24L495.9,60.209v20.5L473.419,93.695Zm24.984,8.24v-20.5l21.216,11.572V92.963ZM1.249,69.687l19.984-10.9V83.838L1.249,94.738Zm142.044,0,19.984-10.9V83.838l-19.984,10.9Zm142.045,0,19.981-10.9V83.838l-19.981,10.9Zm142.043,0,19.983-10.9V83.839l-19.983,10.9ZM119.853,83.315V58.264l20.941,11.423v25.05Zm142.044,0V58.264l20.94,11.423v25.05Zm142.043,0V58.264l20.941,11.422V94.738Zm142.045,0V58.264l20.94,11.422V94.738ZM23.732,57.424,44.788,45.938V70.989L23.732,82.474Zm142.044,0,21.055-11.486V70.989L165.776,82.473Zm142.044,0,21.054-11.486V70.99L307.82,82.473Zm142.044,0,21.054-11.486V70.99L449.864,82.474ZM95.988,70.3V45.248L117.353,56.9V81.952Zm142.045,0V45.248L259.4,56.9V81.952Zm142.043,0V45.248L401.439,56.9V81.952Zm142.044,0V45.248L543.484,56.9V81.952ZM47.287,44.575,69.771,32.31V57.361L47.287,69.626ZM72.272,57.361V32.31L93.49,43.885v25.05ZM189.33,44.576,211.816,32.31V57.361L189.33,69.626Zm24.985,12.785V32.31l21.218,11.575v25.05ZM331.374,44.575,353.859,32.31V57.363L331.374,69.626Zm24.984,12.788V32.31l21.218,11.573V68.935ZM473.419,44.575,495.9,32.31V57.363L473.419,69.626ZM498.4,57.363V32.31l21.216,11.573V68.935ZM285.338,41.151l19.981-11.535V55.941l-19.981,10.9Zm142.043,0,19.983-11.535V55.941l-19.983,10.9Zm-426.132,0L21.233,29.614V55.94L1.249,66.84Zm142.044,0,19.984-11.537V55.94l-19.984,10.9Zm-23.44,14.266V29.061l20.941,12.09V66.84Zm142.044,0V29.061l20.94,12.09V66.84Zm142.043,0V29.061l20.941,12.09V66.84Zm142.045,0V29.061l20.94,12.09V66.84ZM165.776,28.5l.309-.5,20.746-11.977V43.091L165.776,54.576Zm142.044,0,.31-.5,20.744-11.976V43.091L307.82,54.576Zm142.044,0,.307-.5,20.747-11.977V43.093L449.864,54.577Zm-426.132,0,.308-.5L44.788,16.015V43.091L23.732,54.576ZM380.076,42.4V15.284l21.363,12.333V54.053Zm142.044,0V15.284l21.364,12.333V54.053Zm-426.132,0V15.283l21.365,12.335V54.053Zm142.045,0V15.283L259.4,27.618V54.053ZM121.017,26.847,141.824,14.7l20.5,12.58L142.043,38.987Zm142.044,0L283.869,14.7l20.5,12.58L284.087,38.987Zm142.044,0L425.911,14.7l20.5,12.58L426.131,38.987ZM331.374,14.571,353.859,1.59V29.463L331.374,41.728Zm24.984,14.892V1.59l21.218,12.249v27.2ZM473.419,14.571,495.9,1.59V29.463L473.419,41.729ZM498.4,29.463V1.59l21.216,12.249v27.2ZM47.287,14.572,69.771,1.59V29.463L47.287,41.728ZM72.272,29.463V1.59L93.49,13.84v27.2ZM189.33,14.572,211.816,1.59V29.463L189.33,41.729Zm24.985,14.891V1.59l21.218,12.25v27.2ZM2.23,13.265,22.5,1.43l20.63,12.658L22.746,25.854Zm142.043,0L164.54,1.43l20.629,12.658L164.79,25.854Zm142.045,0L306.583,1.43l20.63,12.658L306.834,25.854Zm142.043,0L448.627,1.43l20.63,12.658-20.38,11.766Zm-331.1-.136L118.784.559l20.622,12.654-20.882,12.2Zm142.044,0L260.829.559,281.45,13.212l-20.882,12.2Zm142.044,0L402.872.559l20.623,12.654-20.884,12.2Zm142.044,0L544.916.559l20.622,12.654-20.883,12.2ZM540.915,0,520.9,11.691,500.649,0h-6.991L471.719,12.666,451.075,0h-4.958L425.943,11.782,406.741,0h-7.869l-20.019,11.69L358.6,0h-6.99L329.675,12.666,309.033,0h-4.959L283.9,11.782,264.7,0h-7.871l-20.018,11.69L216.56,0h-6.991L187.632,12.667,166.988,0H162.03L141.856,11.782,122.654,0h-7.87L94.765,11.691,74.517,0H67.526L45.588,12.666,24.945,0H19.987L0,11.673V14.83L20.283,27.276,0,38.987v166.9l20.853,12.04L0,230.109v3.546l20.079,12.32L0,257.7v3.157L20.283,273.3,0,285.014v166.9l20.853,12.039L0,476.135v3.547l19.226,11.8h6.7L47.1,479.113,68.52,491.479h5l22.388-12.926-.012.019,20.468,12.559-.6.348h5.948l-.483-.3L141.5,479.348l19.769,12.131h6.7l21.174-12.366,21.418,12.366h5l22.389-12.926-.011.019L258.41,491.13l-.6.349h5.949l-.484-.3,20.265-11.834,19.771,12.131h6.7l21.175-12.365,21.417,12.365h5L380,478.553l-.013.019,20.468,12.559-.6.348H405.8l-.482-.3,20.263-11.835,19.771,12.131h6.7l21.174-12.365,21.416,12.365h5l22.389-12.926-.013.019L542.5,491.131l-.6.348h5.949l-.483-.3,20.264-11.835.545.335v-3.548l-.513.3-20.337-12.479,20.85-12.037v-166.9l-21.027-12.14,20.808-12.15.219.133V257.7l-.188.111-20.623-12.653,20.267-11.835.544.333v-3.546l-.513.3L547.324,217.93l20.851-12.039V38.987l-21.027-12.14L567.956,14.7l.219.135V11.673l-.188.109L548.785,0Z" transform="translate(0 -0.001)" fill="#6f6"/>
  </g>
</svg>
