<?xml version="1.0" standalone="no"?>
<!DOCTYPE svg PUBLIC "-//W3C//DTD SVG 20010904//EN"
 "http://www.w3.org/TR/2001/REC-SVG-20010904/DTD/svg10.dtd">
<svg version="1.0" xmlns="http://www.w3.org/2000/svg"
 width="700.000000pt" height="700.000000pt" viewBox="0 0 700.000000 700.000000"
 preserveAspectRatio="xMidYMid meet">
<metadata>
Created by potrace 1.11, written by Peter Selinger 2001-2013
</metadata>
<g transform="translate(0.000000,700.000000) scale(0.100000,-0.100000)"
fill="#000000" stroke="none">
<path d="M3309 6896 c-2 -2 -44 -7 -94 -10 -49 -4 -106 -9 -125 -12 -72 -11
-216 -34 -240 -39 -14 -3 -47 -10 -75 -15 -143 -28 -396 -108 -576 -183 -79
-33 -273 -125 -309 -147 -8 -5 -55 -32 -105 -61 -345 -201 -652 -463 -908
-774 -32 -38 -61 -75 -65 -80 -4 -6 -26 -35 -48 -65 -292 -387 -517 -911 -608
-1415 -45 -253 -55 -372 -51 -655 4 -242 6 -269 30 -430 2 -14 7 -50 10 -80 4
-30 9 -58 11 -61 2 -4 6 -24 10 -45 10 -72 65 -278 109 -409 173 -520 441
-954 829 -1340 78 -77 163 -158 190 -180 28 -22 57 -47 66 -55 46 -44 254
-189 398 -278 209 -130 559 -282 807 -352 179 -51 353 -87 500 -104 28 -4 68
-9 90 -11 135 -16 512 -23 605 -11 19 3 67 7 105 11 436 39 950 205 1345 435
151 87 369 237 458 314 15 13 52 45 82 71 555 480 953 1156 1100 1871 12 55
23 115 26 134 3 19 7 42 9 50 2 8 7 42 10 75 3 33 8 69 10 80 8 40 18 243 18
365 0 226 -11 354 -58 635 -22 137 -119 475 -167 585 -6 14 -14 34 -18 45 -97
255 -305 616 -490 849 -133 167 -372 408 -535 539 -170 137 -427 302 -620 400
-280 140 -684 270 -970 312 -22 3 -47 7 -55 10 -8 2 -44 6 -80 10 -36 4 -78 9
-95 11 -35 6 -521 15 -526 10z m491 -510 c14 -2 48 -7 75 -11 241 -29 540
-108 740 -195 22 -10 72 -32 111 -49 295 -128 596 -339 854 -600 332 -335 572
-732 711 -1180 30 -96 73 -267 83 -331 3 -19 8 -46 11 -60 3 -14 7 -46 10 -71
3 -25 8 -56 10 -69 7 -36 18 -235 18 -320 0 -76 -11 -294 -17 -340 -2 -14 -7
-49 -11 -79 -4 -30 -9 -63 -11 -75 -3 -12 -9 -43 -14 -71 -6 -27 -12 -59 -14
-70 -34 -169 -127 -443 -212 -622 -351 -737 -1002 -1301 -1774 -1536 -88 -27
-271 -72 -325 -81 -16 -2 -59 -9 -95 -15 -196 -32 -461 -43 -645 -26 -44 4
-96 8 -115 10 -35 3 -97 12 -135 19 -11 2 -40 7 -65 11 -73 11 -278 63 -376
94 -294 94 -608 258 -858 448 -136 104 -152 117 -317 283 -285 287 -511 639
-652 1015 -75 203 -143 473 -162 651 -4 32 -9 70 -11 84 -9 46 -12 464 -3 531
4 37 10 91 13 120 7 61 7 65 42 249 34 180 132 463 231 665 97 199 248 433
369 575 12 14 43 50 69 80 47 55 212 219 276 274 79 68 272 209 371 270 350
215 714 345 1148 410 19 3 73 8 120 12 47 4 86 8 88 9 6 5 435 -3 462 -9z"/>
<path d="M2502 5122 c-15 -2 -22 -9 -18 -17 4 -11 105 -388 242 -900 13 -49
36 -133 50 -185 14 -52 34 -126 44 -165 10 -38 28 -106 40 -150 29 -109 171
-636 175 -655 2 -8 13 -49 24 -90 31 -113 149 -553 156 -582 12 -51 39 -145
46 -159 7 -14 39 -15 255 -15 l247 1 54 200 c29 110 55 209 57 220 3 11 40
155 84 320 78 296 93 350 98 370 1 6 19 71 39 145 20 74 51 194 70 265 64 244
116 440 121 455 3 8 21 -41 39 -110 18 -69 47 -174 63 -235 16 -60 57 -216 92
-345 34 -129 77 -289 95 -355 19 -66 50 -183 70 -260 106 -400 150 -564 168
-625 l13 -45 247 -1 c170 0 247 3 247 10 -1 14 -9 48 -65 251 -25 94 -48 177
-50 185 -2 8 -14 58 -28 110 -15 52 -74 273 -132 490 -58 217 -108 402 -110
410 -1 8 -22 85 -45 170 -23 85 -44 166 -47 179 -2 14 -6 28 -9 33 -3 4 -7 16
-9 25 -1 10 -15 63 -30 118 -15 55 -37 138 -49 185 -158 593 -199 746 -202
748 -2 3 -359 5 -465 3 -36 -1 -37 -2 -52 -58 -13 -52 -155 -582 -194 -723 -8
-30 -16 -62 -18 -70 -2 -8 -11 -42 -20 -75 -9 -33 -25 -91 -35 -130 -10 -38
-41 -153 -68 -255 -28 -102 -78 -288 -112 -415 -34 -126 -63 -231 -65 -233 -5
-5 -37 107 -100 341 -8 31 -21 81 -29 110 -8 28 -73 270 -145 537 -71 267
-139 519 -150 560 -60 224 -75 280 -88 335 -9 33 -19 64 -23 69 -8 8 -427 15
-478 8z"/>
<path d="M2406 4842 c-16 -59 -76 -282 -133 -497 -58 -214 -106 -397 -108
-405 -2 -8 -12 -49 -24 -90 -12 -41 -48 -176 -81 -300 -81 -305 -109 -409
-120 -450 -12 -43 -64 -238 -158 -590 -39 -146 -72 -274 -74 -285 -3 -20 3
-20 244 -21 216 0 248 2 253 15 5 20 125 471 130 491 2 8 27 101 55 205 50
182 67 247 165 615 24 91 63 239 88 330 l44 165 -24 85 c-13 47 -36 135 -52
195 -17 61 -42 155 -57 210 -15 55 -46 174 -70 263 -23 90 -44 165 -46 167 -2
3 -17 -44 -32 -103z"/>
</g>
</svg>
